<svg
  xmlns="http://www.w3.org/2000/svg"
  version="1.1"
  xmlns:xlink="http://www.w3.org/1999/xlink"
  xmlns:svgjs="http://svgjs.dev/svgjs"
  width="1000"
  height="623"
  viewBox="0 0 1000 623"
>
  <g transform="matrix(1,0,0,1,-0.6060606060606233,0.2522267206477409)">
    <svg
      viewBox="0 0 396 247"
      data-background-color="#ffffff"
      preserveAspectRatio="xMidYMid meet"
      height="623"
      width="1000"
      xmlns="http://www.w3.org/2000/svg"
      xmlns:xlink="http://www.w3.org/1999/xlink"
    >
      <g
        id="tight-bounds"
        transform="matrix(1,0,0,1,0.2400000000000091,-0.09999999999999432)"
      >
        <svg viewBox="0 0 395.52 247.2" height="247.2" width="395.52">
          <g><svg></svg></g>
          <g>
            <svg viewBox="0 0 395.52 247.2" height="247.2" width="395.52">
              <g
                transform="matrix(1,0,0,1,39.55199999999999,70.44028831435003)"
              >
                <svg
                  viewBox="0 0 316.416 106.31942337129992"
                  height="106.31942337129992"
                  width="316.416"
                >
                  <g>
                    <svg
                      viewBox="0 0 316.416 106.31942337129992"
                      height="106.31942337129992"
                      width="316.416"
                    >
                      <g>
                        <svg
                          viewBox="0 0 522.2100940983416 175.46861120552677"
                          height="106.31942337129992"
                          width="316.416"
                        >
                          <g
                            transform="matrix(1,0,0,1,205.79409409834165,24.250727018998276)"
                          >
                            <svg
                              viewBox="0 0 316.416 126.96715716753022"
                              height="126.96715716753022"
                              width="316.416"
                            >
                              <g>
                                <svg
                                  viewBox="0 0 316.416 126.96715716753022"
                                  height="126.96715716753022"
                                  width="316.416"
                                  id="textblock"
                                >
                                  <g>
                                    <svg
                                      viewBox="0 0 316.416 126.96715716753022"
                                      height="126.96715716753022"
                                      width="316.416"
                                    >
                                      <g transform="matrix(1,0,0,1,0,0)">
                                        <svg
                                          width="316.416"
                                          viewBox="0.800000011920929 -34.150001525878906 86.8499984741211 34.85000228881836"
                                          height="126.96715716753022"
                                          data-palette-color="#23ce6b"
                                        >
                                          <path
                                            d="M27.3-32.85L27-23.85Q19.95-24.6 16.75-24.6 13.55-24.6 13.03-24.43 12.5-24.25 12.5-23.7 12.5-23.15 13.1-22.85 13.7-22.55 16.88-21.85 20.05-21.15 22.08-20.48 24.1-19.8 25.73-18.57 27.35-17.35 27.88-15.58 28.4-13.8 28.4-10.8L28.4-10.8Q28.4-4.6 25.1-1.95 21.8 0.7 15.15 0.7L15.15 0.7Q11.95 0.7 8.43 0.25 4.9-0.2 3-0.65L3-0.65 1.05-1.1 1.55-9.95Q9.2-8.85 14.1-8.85L14.1-8.85Q16.7-8.85 16.7-10L16.7-10Q16.7-10.5 16.1-10.73 15.5-10.95 12.85-11.35L12.85-11.35Q5.85-12.45 3.33-14.78 0.8-17.1 0.8-22.4L0.8-22.4Q0.8-29.15 4.05-31.65 7.3-34.15 14.05-34.15L14.05-34.15Q18.8-34.15 25.2-33.2L25.2-33.2 27.3-32.85ZM30.4 0L30.4-33.5 45.55-33.5Q57.8-33.5 57.8-25.2L57.8-25.2Q57.8-22.05 57.12-20.35 56.45-18.65 54.35-17.15L54.35-17.15Q56.8-16.1 57.72-14.58 58.65-13.05 58.65-9.5L58.65-9.5Q58.65 0 45.75 0L45.75 0 30.4 0ZM44.7-13.25L44.7-13.25 42-13.25 42-7.75 44.7-7.75Q46.45-7.75 47.05-8.33 47.65-8.9 47.65-10.48 47.65-12.05 47-12.65 46.35-13.25 44.7-13.25ZM44.55-25.85L44.55-25.85 42-25.85 42-20.5 44.6-20.5Q46.1-20.5 46.7-21.15 47.3-21.8 47.3-23.23 47.3-24.65 46.65-25.25 46-25.85 44.55-25.85ZM86.55-32.85L86.25-23.85Q79.2-24.6 76-24.6 72.8-24.6 72.27-24.43 71.75-24.25 71.75-23.7 71.75-23.15 72.34-22.85 72.95-22.55 76.12-21.85 79.3-21.15 81.32-20.48 83.34-19.8 84.97-18.57 86.59-17.35 87.12-15.58 87.65-13.8 87.65-10.8L87.65-10.8Q87.65-4.6 84.34-1.95 81.05 0.7 74.4 0.7L74.4 0.7Q71.2 0.7 67.67 0.25 64.15-0.2 62.25-0.65L62.25-0.65 60.3-1.1 60.8-9.95Q68.45-8.85 73.34-8.85L73.34-8.85Q75.95-8.85 75.95-10L75.95-10Q75.95-10.5 75.34-10.73 74.75-10.95 72.09-11.35L72.09-11.35Q65.09-12.45 62.57-14.78 60.05-17.1 60.05-22.4L60.05-22.4Q60.05-29.15 63.3-31.65 66.55-34.15 73.3-34.15L73.3-34.15Q78.05-34.15 84.45-33.2L84.45-33.2 86.55-32.85Z"
                                            opacity="1"
                                            transform="matrix(1,0,0,1,0,0)"
                                            fill="#23ce6b"
                                            class="undefined-text-0"
                                            data-fill-palette-color="primary"
                                            id="text-0"
                                          ></path>
                                        </svg>
                                      </g>
                                    </svg>
                                  </g>
                                </svg>
                              </g>
                            </svg>
                          </g>
                          <g>
                            <svg
                              viewBox="0 0 187.26653865582696 175.46861120552677"
                              height="175.46861120552677"
                              width="187.26653865582696"
                            >
                              <g>
                                <svg
                                  xmlns="http://www.w3.org/2000/svg"
                                  xmlns:xlink="http://www.w3.org/1999/xlink"
                                  version="1.1"
                                  x="0"
                                  y="0"
                                  viewBox="7 9.709000587463379 85.9990005493164 80.58100128173828"
                                  enable-background="new 0 0 100 100"
                                  xml:space="preserve"
                                  height="175.46861120552677"
                                  width="187.26653865582696"
                                  class="icon-icon-0"
                                  data-fill-palette-color="accent"
                                  id="icon-0"
                                >
                                  <path
                                    fill="#224870"
                                    d="M90.096 9.71H50.265v9.167h13.446v9.01H50.265v8.806h13.308v8.874H50.265v8.87h13.308v8.873H50.265v8.872h13.308v8.872H50.265v9.236h39.83c2.047 0 2.904-0.921 2.904-3.045v-74.49C93 10.629 92.142 9.71 90.096 9.71zM85.756 81.055H68.011v-8.871h17.745V81.055zM85.756 63.312H68.011v-8.873h17.745V63.312zM85.756 45.567H68.011v-8.875h17.745V45.567zM85.756 27.82H68.011v-8.873h17.745V27.82z"
                                    data-fill-palette-color="accent"
                                  ></path>
                                  <path
                                    fill="#224870"
                                    d="M41.644 36.307h-23.65c-2.377 0.001-4.302-1.926-4.302-4.303 0-2.374 1.925-4.302 4.302-4.302h23.65"
                                    data-fill-palette-color="accent"
                                  ></path>
                                  <path
                                    fill="#224870"
                                    d="M41.644 54.302H11.303C8.925 54.302 7 52.372 7 49.998c0-2.374 1.925-4.302 4.303-4.302h30.341"
                                    data-fill-palette-color="accent"
                                  ></path>
                                  <path
                                    fill="#224870"
                                    d="M41.768 18.315H28.505c-2.376 0-4.303-1.927-4.303-4.304 0-2.375 1.926-4.302 4.303-4.302h13.263"
                                    data-fill-palette-color="accent"
                                  ></path>
                                  <path
                                    fill="#224870"
                                    d="M41.644 72.297h-23.65c-2.377 0-4.302-1.927-4.302-4.302s1.925-4.303 4.302-4.303h23.65"
                                    data-fill-palette-color="accent"
                                  ></path>
                                  <path
                                    fill="#224870"
                                    d="M41.77 90.29H28.505c-2.376 0-4.303-1.928-4.303-4.305 0-2.376 1.926-4.303 4.303-4.303h13.263"
                                    data-fill-palette-color="accent"
                                  ></path>
                                </svg>
                              </g>
                            </svg>
                          </g>
                        </svg>
                      </g>
                    </svg>
                  </g>
                </svg>
              </g>
              <g>
                <path
                  xmlns="http://www.w3.org/2000/svg"
                  d="M0 247.2v-247.2h395.52v247.2zM391.232 242.912v-238.624h-386.944v238.624z"
                  fill="#122c34"
                  fill-rule="nonzero"
                  stroke="none"
                  stroke-width="1"
                  stroke-linecap="butt"
                  stroke-linejoin="miter"
                  stroke-miterlimit="10"
                  stroke-dasharray=""
                  stroke-dashoffset="0"
                  font-family="none"
                  font-weight="none"
                  font-size="none"
                  text-anchor="none"
                  style="mix-blend-mode: normal"
                  data-fill-palette-color="tertiary"
                ></path>
              </g>
            </svg>
          </g>
          <defs></defs>
        </svg>
        <rect
          width="395.52"
          height="247.2"
          fill="none"
          stroke="none"
          visibility="hidden"
        ></rect>
      </g>
    </svg>
  </g>
</svg>
